<?xml version="1.0" encoding="UTF-8" standalone="no"?>
<svg
   xmlns:dc="http://purl.org/dc/elements/1.1/"
   xmlns:cc="http://creativecommons.org/ns#"
   xmlns:rdf="http://www.w3.org/1999/02/22-rdf-syntax-ns#"
   xmlns:svg="http://www.w3.org/2000/svg"
   xmlns="http://www.w3.org/2000/svg"
   viewBox="0 0 354.76266 354.76266"
   height="354.76266"
   width="354.76266"
   xml:space="preserve"
   id="svg2"
   version="1.1"><metadata
     id="metadata8"><rdf:RDF><cc:Work
         rdf:about=""><dc:format>image/svg+xml</dc:format><dc:type
           rdf:resource="http://purl.org/dc/dcmitype/StillImage" /></cc:Work></rdf:RDF></metadata><defs
     id="defs6"><clipPath
       id="clipPath28"
       clipPathUnits="userSpaceOnUse"><path
         id="path26"
         d="M 0,266.072 H 266.072 V 0 H 0 Z" /></clipPath></defs><g
     transform="matrix(1.3333333,0,0,-1.3333333,0,354.76267)"
     id="g10"><path
       id="path12"
       style="fill:#4520ab;fill-opacity:1;fill-rule:nonzero;stroke:none"
       d="M 0,0 H 266.072 V 266.072 H 0 Z" /><g
       transform="translate(66.3478,218.4167)"
       id="g14"><path
         id="path16"
         style="fill:#29edff;fill-opacity:1;fill-rule:nonzero;stroke:none"
         d="m 0,0 h -10.337 v -7.525 h 10.031 v -2.66 h -10.031 v -9.843 H 0 v -2.66 H -13.148 V 2.658 L 0,2.658 Z" /></g><g
       transform="translate(107.7028,221.0744)"
       id="g18"><path
         id="path20"
         style="fill:#29edff;fill-opacity:1;fill-rule:nonzero;stroke:none"
         d="m 0,0 v -22.686 h 6.991 v -2.66 h -9.803 l 0,25.346 z" /></g><g
       id="g22"><g
         clip-path="url(#clipPath28)"
         id="g24"><g
           transform="translate(155.1374,198.3888)"
           id="g30"><path
             id="path32"
             style="fill:#29edff;fill-opacity:1;fill-rule:nonzero;stroke:none"
             d="M 0,0 H 3.231 C 4.864,0 6.46,0.114 7.676,1.064 8.664,1.787 9.349,3.04 9.349,4.559 9.349,6.574 8.17,7.753 7.183,8.284 6.232,8.815 4.902,9.043 2.889,9.043 H 0 Z m 0,11.552 h 2.129 c 1.482,0 4.976,0.303 4.976,4.219 0,4.18 -4.102,4.257 -4.901,4.257 H 0 Z m 1.747,11.134 c 1.408,0 3.954,-0.112 5.815,-1.596 0.799,-0.608 2.281,-2.164 2.281,-5.244 0,-1.253 -0.266,-3.457 -2.509,-4.979 3.534,-0.873 4.827,-3.95 4.827,-6.383 0,-2.432 -1.216,-4.41 -2.584,-5.472 -2.015,-1.595 -4.333,-1.673 -6.08,-1.673 h -6.309 v 25.347 z" /></g><g
           transform="translate(204.5856,209.3332)"
           id="g34"><path
             id="path36"
             style="fill:#29edff;fill-opacity:1;fill-rule:nonzero;stroke:none"
             d="m 0,0 h 1.787 c 3.494,0 5.587,1.673 5.587,4.636 0,1.407 -0.42,2.812 -2.016,3.725 C 4.22,9.006 2.926,9.083 1.71,9.083 H 0 Z m 1.254,11.741 c 1.71,0 4.256,-0.111 6.157,-1.405 1.482,-0.987 2.775,-2.925 2.775,-5.623 0,-3.877 -2.546,-6.728 -6.386,-6.994 l 8.058,-11.324 H 8.436 L 0.723,-2.509 H 0 v -11.096 h -2.812 v 25.346 z" /></g><g
           transform="translate(53.5788,155.6457)"
           id="g38"><path
             id="path40"
             style="fill:#29edff;fill-opacity:1;fill-rule:nonzero;stroke:none"
             d="m 0,0 c 0,-2.129 0,-4.447 2.015,-6.157 1.025,-0.874 2.772,-1.445 4.18,-1.445 1.407,0 3.154,0.571 4.179,1.445 2.015,1.71 2.015,4.028 2.015,6.157 v 15.541 h 2.812 V -0.762 c 0,-2.127 -0.228,-4.179 -1.596,-6.08 -1.521,-2.09 -4.182,-3.42 -7.41,-3.42 -3.232,0 -5.889,1.33 -7.411,3.42 -1.367,1.901 -1.596,3.953 -1.596,6.08 V 15.541 H 0 Z" /></g><g
           transform="translate(114.5426,166.1711)"
           id="g42"><path
             id="path44"
             style="fill:#29edff;fill-opacity:1;fill-rule:nonzero;stroke:none"
             d="m 0,0 c -0.342,0.685 -0.913,1.444 -1.481,1.901 -0.494,0.38 -1.408,0.873 -2.852,0.873 -2.507,0 -4.256,-1.558 -4.256,-3.913 0,-0.988 0.268,-1.559 0.95,-2.204 0.76,-0.762 1.71,-1.179 2.661,-1.596 l 2.432,-1.064 c 1.481,-0.645 2.849,-1.33 3.914,-2.395 1.293,-1.293 1.824,-2.775 1.824,-4.599 0,-4.673 -3.458,-7.79 -8.019,-7.79 -1.67,0 -3.762,0.342 -5.509,2.052 -1.254,1.216 -2.016,2.963 -2.355,4.485 l 2.734,0.759 c 0.191,-1.33 0.8,-2.469 1.522,-3.229 1.102,-1.102 2.355,-1.407 3.648,-1.407 3.457,0 5.09,2.469 5.09,5.016 0,1.141 -0.34,2.129 -1.253,2.965 -0.723,0.683 -1.71,1.14 -3.041,1.748 l -2.28,1.065 c -0.988,0.456 -2.241,0.987 -3.38,2.089 -1.102,1.065 -1.75,2.244 -1.75,4.142 0,3.914 3.003,6.537 7.108,6.537 1.558,0 2.812,-0.306 4.065,-1.139 C 0.799,3.611 1.673,2.583 2.241,1.481 Z" /></g><g
           transform="translate(168.2487,174.341)"
           id="g46"><path
             id="path48"
             style="fill:#29edff;fill-opacity:1;fill-rule:nonzero;stroke:none"
             d="m 0,0 2.204,-1.139 -19.078,-34.201 -2.203,1.065 z" /></g><g
           transform="translate(55.0993,98.611)"
           id="g50"><path
             id="path52"
             style="fill:#29edff;fill-opacity:1;fill-rule:nonzero;stroke:none"
             d="m 0,0 h 3.231 c 1.633,0 3.229,0.113 4.445,1.064 0.988,0.722 1.673,1.975 1.673,3.495 0,2.014 -1.18,3.194 -2.167,3.724 -0.951,0.531 -2.281,0.76 -4.293,0.76 L 0,9.043 Z m 0,11.552 h 2.126 c 1.485,0 4.979,0.302 4.979,4.219 0,4.179 -4.102,4.256 -4.901,4.256 H 0 Z m 1.747,11.133 c 1.407,0 3.954,-0.114 5.815,-1.596 0.799,-0.608 2.28,-2.166 2.28,-5.243 0,-1.254 -0.265,-3.457 -2.509,-4.979 C 10.867,9.993 12.16,6.916 12.16,4.484 12.16,2.052 10.944,0.076 9.577,-0.988 7.562,-2.584 5.244,-2.661 3.497,-2.661 h -6.309 v 25.346 z" /></g><g
           transform="translate(105.4235,116.318)"
           id="g54"><path
             id="path56"
             style="fill:#29edff;fill-opacity:1;fill-rule:nonzero;stroke:none"
             d="m 0,0 c -1.367,-2.164 -1.864,-5.053 -1.864,-7.714 0,-2.66 0.497,-5.549 1.864,-7.713 1.33,-2.13 3.077,-2.814 4.371,-2.814 1.29,0 3.04,0.684 4.37,2.814 1.367,2.164 1.861,5.053 1.861,7.713 0,2.661 -0.494,5.55 -1.861,7.714 C 7.411,2.129 5.661,2.814 4.371,2.814 3.077,2.814 1.33,2.129 0,0 m -2.129,-17.025 c -1.67,2.432 -2.547,5.701 -2.547,9.311 0,3.611 0.877,6.88 2.547,9.312 1.938,2.812 4.484,3.799 6.5,3.799 2.012,0 4.558,-0.987 6.497,-3.799 1.673,-2.432 2.546,-5.701 2.546,-9.312 0,-3.61 -0.873,-6.879 -2.546,-9.311 -1.939,-2.812 -4.485,-3.8 -6.497,-3.8 -2.016,0 -4.562,0.988 -6.5,3.8" /></g><g
           transform="translate(155.443,116.318)"
           id="g58"><path
             id="path60"
             style="fill:#29edff;fill-opacity:1;fill-rule:nonzero;stroke:none"
             d="m 0,0 c -1.368,-2.164 -1.861,-5.053 -1.861,-7.714 0,-2.66 0.493,-5.549 1.861,-7.713 1.33,-2.13 3.077,-2.814 4.37,-2.814 1.291,0 3.041,0.684 4.371,2.814 1.367,2.164 1.861,5.053 1.861,7.713 0,2.661 -0.494,5.55 -1.861,7.714 C 7.411,2.129 5.661,2.814 4.37,2.814 3.077,2.814 1.33,2.129 0,0 m -2.129,-17.025 c -1.671,2.432 -2.547,5.701 -2.547,9.311 0,3.611 0.876,6.88 2.547,9.312 1.938,2.812 4.484,3.799 6.499,3.799 2.013,0 4.559,-0.987 6.497,-3.799 1.673,-2.432 2.547,-5.701 2.547,-9.312 0,-3.61 -0.874,-6.879 -2.547,-9.311 -1.938,-2.812 -4.484,-3.8 -6.497,-3.8 -2.015,0 -4.561,0.988 -6.499,3.8" /></g><g
           transform="translate(210.5153,118.6384)"
           id="g62"><path
             id="path64"
             style="fill:#29edff;fill-opacity:1;fill-rule:nonzero;stroke:none"
             d="M 0,0 V -22.688 H -2.813 V 0 H -8.969 V 2.658 H 6.157 V 0 Z" /></g><g
           transform="translate(70.1471,65.8219)"
           id="g66"><path
             id="path68"
             style="fill:#29edff;fill-opacity:1;fill-rule:nonzero;stroke:none"
             d="m 0,0 c -0.796,0.799 -2.013,1.75 -3.306,2.357 -1.33,0.609 -2.888,0.989 -4.37,0.989 -5.852,0 -10.185,-4.713 -10.185,-10.566 0,-6.877 5.586,-10.336 10.222,-10.336 1.71,0 3.383,0.494 4.713,1.179 1.445,0.722 2.472,1.673 2.926,2.127 v -3.494 c -2.812,-2.016 -5.738,-2.473 -7.639,-2.473 -7.522,0 -13.108,5.701 -13.108,13.034 0,7.566 5.661,13.189 13.262,13.189 1.519,0 4.445,-0.192 7.485,-2.509 z" /></g><g
           transform="translate(114.1247,55.8678)"
           id="g70"><path
             id="path72"
             style="fill:#29edff;fill-opacity:1;fill-rule:nonzero;stroke:none"
             d="M 0,0 -4.256,10.146 -8.589,0 Z M 1.102,-2.66 H -9.691 l -3.04,-7.146 h -3.115 L -4.182,16.757 7.182,-9.806 H 4.065 Z" /></g><g
           transform="translate(145.904,46.0622)"
           id="g74"><path
             id="path76"
             style="fill:#29edff;fill-opacity:1;fill-rule:nonzero;stroke:none"
             d="M 0,0 4.217,26.753 13.945,5.358 23.865,26.791 27.816,0 H 24.93 L 22.535,17.633 13.908,-1.064 5.396,17.633 2.886,0 Z" /></g><g
           transform="translate(205.2712,59.7419)"
           id="g78"><path
             id="path80"
             style="fill:#29edff;fill-opacity:1;fill-rule:nonzero;stroke:none"
             d="m 0,0 h 2.317 c 3.346,0 5.359,1.672 5.359,4.599 0,4.027 -3.763,4.41 -5.586,4.41 H 0 Z m 1.787,11.666 c 2.546,0 4.673,-0.302 6.383,-1.784 1.861,-1.596 2.317,-3.839 2.317,-5.435 0,-3.571 -2.24,-7.105 -8.018,-7.105 H 0 V -13.68 h -2.812 v 25.346 z" /></g></g></g></g></svg>